<?xml version="1.0" encoding="UTF-8" standalone="no"?>
<!DOCTYPE svg PUBLIC "-//W3C//DTD SVG 1.1//EN"
 "http://www.w3.org/Graphics/SVG/1.1/DTD/svg11.dtd">
<!-- Generated by graphviz version 5.0.0 (20220707.1540)
 -->
<!-- Title: dependencies Pages: 1 -->
<svg width="312pt" height="174pt"
 viewBox="0.00 0.00 312.00 173.80" xmlns="http://www.w3.org/2000/svg" xmlns:xlink="http://www.w3.org/1999/xlink">
<g id="graph0" class="graph" transform="scale(1 1) rotate(0) translate(4 169.8)">
<title>dependencies</title>
<polygon fill="white" stroke="transparent" points="-4,4 -4,-169.8 308,-169.8 308,4 -4,4"/>
<text text-anchor="middle" x="152" y="-8.2" font-family="sans-serif" font-size="14.00">dependencies</text>
<g id="clust1" class="cluster">
<title>cluster_NavModule</title>
<polygon fill="none" stroke="black" stroke-dasharray="1,5" points="8,-32.8 8,-157.8 296,-157.8 296,-32.8 8,-32.8"/>
</g>
<g id="clust4" class="cluster">
<title>cluster_NavModule_imports</title>
<polygon fill="none" stroke="black" points="144,-40.8 144,-92.8 288,-92.8 288,-40.8 144,-40.8"/>
</g>
<g id="clust2" class="cluster">
<title>cluster_NavModule_declarations</title>
<polygon fill="none" stroke="black" points="16,-40.8 16,-92.8 136,-92.8 136,-40.8 16,-40.8"/>
</g>
<!-- NavComponent -->
<g id="node1" class="node">
<title>NavComponent</title>
<polygon fill="#ffffb3" stroke="black" points="128.16,-84.8 23.84,-84.8 23.84,-48.8 128.16,-48.8 128.16,-84.8"/>
<text text-anchor="middle" x="76" y="-62.6" font-family="Times,serif" font-size="14.00">NavComponent</text>
</g>
<!-- NavModule -->
<g id="node2" class="node">
<title>NavModule</title>
<polygon fill="#8dd3c7" stroke="black" points="187.38,-149.8 184.38,-153.8 163.38,-153.8 160.38,-149.8 104.62,-149.8 104.62,-113.8 187.38,-113.8 187.38,-149.8"/>
<text text-anchor="middle" x="146" y="-127.6" font-family="Times,serif" font-size="14.00">NavModule</text>
</g>
<!-- NavComponent&#45;&gt;NavModule -->
<g id="edge1" class="edge">
<title>NavComponent&#45;&gt;NavModule</title>
<path fill="none" stroke="black" d="M116.44,-84.91C116.44,-84.91 116.44,-103.79 116.44,-103.79"/>
<polygon fill="black" stroke="black" points="112.94,-103.79 116.44,-113.79 119.94,-103.79 112.94,-103.79"/>
</g>
<!-- NavRoutingModule -->
<g id="node3" class="node">
<title>NavRoutingModule</title>
<polygon fill="#8dd3c7" stroke="black" points="279.99,-84.8 276.99,-88.8 255.99,-88.8 252.99,-84.8 152.01,-84.8 152.01,-48.8 279.99,-48.8 279.99,-84.8"/>
<text text-anchor="middle" x="216" y="-62.6" font-family="Times,serif" font-size="14.00">NavRoutingModule</text>
</g>
<!-- NavRoutingModule&#45;&gt;NavModule -->
<g id="edge2" class="edge">
<title>NavRoutingModule&#45;&gt;NavModule</title>
<path fill="none" stroke="black" d="M169.72,-84.91C169.72,-84.91 169.72,-103.79 169.72,-103.79"/>
<polygon fill="black" stroke="black" points="166.22,-103.79 169.72,-113.79 173.22,-103.79 166.22,-103.79"/>
</g>
</g>
</svg>
