<?xml version="1.0" encoding="UTF-8" standalone="no"?>
<!DOCTYPE svg PUBLIC "-//W3C//DTD SVG 1.1//EN"
 "http://www.w3.org/Graphics/SVG/1.1/DTD/svg11.dtd">
<!-- Generated by graphviz version 5.0.0 (20220707.1540)
 -->
<!-- Title: dependencies Pages: 1 -->
<svg width="867pt" height="247pt"
 viewBox="0.00 0.00 867.00 246.80" xmlns="http://www.w3.org/2000/svg" xmlns:xlink="http://www.w3.org/1999/xlink">
<g id="graph0" class="graph" transform="scale(1 1) rotate(0) translate(4 242.8)">
<title>dependencies</title>
<polygon fill="white" stroke="transparent" points="-4,4 -4,-242.8 863,-242.8 863,4 -4,4"/>
<text text-anchor="middle" x="429.5" y="-8.2" font-family="sans-serif" font-size="14.00">dependencies</text>
<g id="clust1" class="cluster">
<title>cluster_AppModule</title>
<polygon fill="none" stroke="black" stroke-dasharray="1,5" points="8,-32.8 8,-230.8 851,-230.8 851,-32.8 8,-32.8"/>
</g>
<g id="clust2" class="cluster">
<title>cluster_AppModule_declarations</title>
<polygon fill="none" stroke="black" points="168,-40.8 168,-92.8 843,-92.8 843,-40.8 168,-40.8"/>
</g>
<g id="clust8" class="cluster">
<title>cluster_AppModule_imports</title>
<polygon fill="none" stroke="black" points="16,-40.8 16,-92.8 160,-92.8 160,-40.8 16,-40.8"/>
</g>
<g id="clust10" class="cluster">
<title>cluster_AppModule_bootstrap</title>
<polygon fill="none" stroke="black" points="376,-170.8 376,-222.8 500,-222.8 500,-170.8 376,-170.8"/>
</g>
<!-- AppComponent -->
<g id="node1" class="node">
<title>AppComponent</title>
<polygon fill="#ffffb3" stroke="black" points="834.94,-84.8 729.06,-84.8 729.06,-48.8 834.94,-48.8 834.94,-84.8"/>
<text text-anchor="middle" x="782" y="-62.6" font-family="Times,serif" font-size="14.00">AppComponent</text>
</g>
<!-- AppModule -->
<g id="node6" class="node">
<title>AppModule</title>
<polygon fill="#8dd3c7" stroke="black" points="479.66,-149.8 476.66,-153.8 455.66,-153.8 452.66,-149.8 396.34,-149.8 396.34,-113.8 479.66,-113.8 479.66,-149.8"/>
<text text-anchor="middle" x="438" y="-127.6" font-family="Times,serif" font-size="14.00">AppModule</text>
</g>
<!-- AppComponent&#45;&gt;AppModule -->
<g id="edge1" class="edge">
<title>AppComponent&#45;&gt;AppModule</title>
<path fill="none" stroke="black" d="M782,-85.08C782,-106.12 782,-137.8 782,-137.8 782,-137.8 489.84,-137.8 489.84,-137.8"/>
<polygon fill="black" stroke="black" points="489.84,-134.3 479.84,-137.8 489.84,-141.3 489.84,-134.3"/>
</g>
<!-- ChartComponent -->
<g id="node2" class="node">
<title>ChartComponent</title>
<polygon fill="#ffffb3" stroke="black" points="711.44,-84.8 598.56,-84.8 598.56,-48.8 711.44,-48.8 711.44,-84.8"/>
<text text-anchor="middle" x="655" y="-62.6" font-family="Times,serif" font-size="14.00">ChartComponent</text>
</g>
<!-- ChartComponent&#45;&gt;AppModule -->
<g id="edge2" class="edge">
<title>ChartComponent&#45;&gt;AppModule</title>
<path fill="none" stroke="black" d="M655,-84.82C655,-102.17 655,-125.8 655,-125.8 655,-125.8 489.84,-125.8 489.84,-125.8"/>
<polygon fill="black" stroke="black" points="489.84,-122.3 479.84,-125.8 489.84,-129.3 489.84,-122.3"/>
</g>
<!-- GridTableComponent -->
<g id="node3" class="node">
<title>GridTableComponent</title>
<polygon fill="#ffffb3" stroke="black" points="580.36,-84.8 441.64,-84.8 441.64,-48.8 580.36,-48.8 580.36,-84.8"/>
<text text-anchor="middle" x="511" y="-62.6" font-family="Times,serif" font-size="14.00">GridTableComponent</text>
</g>
<!-- GridTableComponent&#45;&gt;AppModule -->
<g id="edge3" class="edge">
<title>GridTableComponent&#45;&gt;AppModule</title>
<path fill="none" stroke="black" d="M460.7,-84.91C460.7,-84.91 460.7,-103.79 460.7,-103.79"/>
<polygon fill="black" stroke="black" points="457.2,-103.79 460.7,-113.79 464.2,-103.79 457.2,-103.79"/>
</g>
<!-- HomeComponent -->
<g id="node4" class="node">
<title>HomeComponent</title>
<polygon fill="#ffffb3" stroke="black" points="423.55,-84.8 308.45,-84.8 308.45,-48.8 423.55,-48.8 423.55,-84.8"/>
<text text-anchor="middle" x="366" y="-62.6" font-family="Times,serif" font-size="14.00">HomeComponent</text>
</g>
<!-- HomeComponent&#45;&gt;AppModule -->
<g id="edge4" class="edge">
<title>HomeComponent&#45;&gt;AppModule</title>
<path fill="none" stroke="black" d="M409.97,-84.91C409.97,-84.91 409.97,-103.79 409.97,-103.79"/>
<polygon fill="black" stroke="black" points="406.47,-103.79 409.97,-113.79 413.47,-103.79 406.47,-103.79"/>
</g>
<!-- LoginComponent -->
<g id="node5" class="node">
<title>LoginComponent</title>
<polygon fill="#ffffb3" stroke="black" points="290.27,-84.8 175.73,-84.8 175.73,-48.8 290.27,-48.8 290.27,-84.8"/>
<text text-anchor="middle" x="233" y="-62.6" font-family="Times,serif" font-size="14.00">LoginComponent</text>
</g>
<!-- LoginComponent&#45;&gt;AppModule -->
<g id="edge5" class="edge">
<title>LoginComponent&#45;&gt;AppModule</title>
<path fill="none" stroke="black" d="M233,-84.82C233,-102.17 233,-125.8 233,-125.8 233,-125.8 386.02,-125.8 386.02,-125.8"/>
<polygon fill="black" stroke="black" points="386.02,-129.3 396.02,-125.8 386.02,-122.3 386.02,-129.3"/>
</g>
<!-- AppComponent  -->
<g id="node8" class="node">
<title>AppComponent </title>
<polygon fill="#80b1d3" stroke="black" points="492.44,-214.8 383.56,-214.8 383.56,-178.8 492.44,-178.8 492.44,-214.8"/>
<text text-anchor="middle" x="438" y="-192.6" font-family="Times,serif" font-size="14.00">AppComponent </text>
</g>
<!-- AppModule&#45;&gt;AppComponent  -->
<g id="edge7" class="edge">
<title>AppModule&#45;&gt;AppComponent </title>
<path fill="none" stroke="black" stroke-dasharray="1,5" d="M438,-149.91C438,-149.91 438,-168.79 438,-168.79"/>
<polygon fill="black" stroke="black" points="434.5,-168.79 438,-178.79 441.5,-168.79 434.5,-168.79"/>
</g>
<!-- AppRoutingModule -->
<g id="node7" class="node">
<title>AppRoutingModule</title>
<polygon fill="#8dd3c7" stroke="black" points="152.28,-84.8 149.28,-88.8 128.28,-88.8 125.28,-84.8 23.72,-84.8 23.72,-48.8 152.28,-48.8 152.28,-84.8"/>
<text text-anchor="middle" x="88" y="-62.6" font-family="Times,serif" font-size="14.00">AppRoutingModule</text>
</g>
<!-- AppRoutingModule&#45;&gt;AppModule -->
<g id="edge6" class="edge">
<title>AppRoutingModule&#45;&gt;AppModule</title>
<path fill="none" stroke="black" d="M88,-85.08C88,-106.12 88,-137.8 88,-137.8 88,-137.8 386.13,-137.8 386.13,-137.8"/>
<polygon fill="black" stroke="black" points="386.13,-141.3 396.13,-137.8 386.13,-134.3 386.13,-141.3"/>
</g>
</g>
</svg>
